<?xml version="1.0" encoding="utf-8"?>
<!DOCTYPE svg PUBLIC "-//W3C//DTD SVG 1.1//EN" "http://www.w3.org/Graphics/SVG/1.1/DTD/svg11.dtd">
<svg version="1.1" id="Layer_1" xmlns="http://www.w3.org/2000/svg" xmlns:xlink="http://www.w3.org/1999/xlink" x="0px" y="0px"
	 width="841.889px" height="595.281px" viewBox="0 0 841.889 595.281" enable-background="new 0 0 841.889 595.281"
	 xml:space="preserve">
<circle fill="#26B8B0" cx="420.945" cy="297.64" r="294.642"/>
<g>
	<path fill="#FFFFFF" d="M551.669,180.404c0,0-1.58,1.263-4.541,3.626c-2.978,2.351-7.285,5.871-12.879,10.206
		c-5.637,4.286-12.2,9.827-19.791,16.076c-7.663,6.166-15.933,13.586-25.143,21.427c-4.608,3.909-9.172,8.266-14.02,12.62
		c-2.413,2.188-4.864,4.41-7.361,6.669c-2.429,2.321-4.897,4.68-7.402,7.07c-5.015,4.77-10.177,9.655-15.221,14.887
		c-5.095,5.175-10.378,10.377-15.471,15.939c-2.581,2.743-5.183,5.514-7.808,8.305c-2.536,2.865-5.086,5.75-7.657,8.655
		c-5.213,5.743-10.148,11.849-15.285,17.858c-9.999,12.25-19.921,24.894-29.169,38.055c-9.386,13.057-18.37,26.42-27.111,39.704
		c-8.723,13.296-58.956,87.829-64.296,98.874c-2.531,5.606-5.556,10.655-8.329,15.498c-2.897,4.769,1.765-11.908,3.979-17.478
		c4.726-10.983,53.187-87.978,61.919-101.298c8.675-13.356,17.645-26.899,27.076-40.146c9.428-13.247,19.551-26.004,29.759-38.346
		c5.207-6.081,10.307-12.174,15.697-17.88c2.652-2.892,5.291-5.761,7.912-8.615c2.7-2.771,5.379-5.522,8.041-8.251
		c5.262-5.515,10.642-10.724,15.975-15.761c5.235-5.122,10.589-9.896,15.784-14.547c2.594-2.333,5.152-4.632,7.666-6.899
		c2.59-2.186,5.142-4.34,7.647-6.457c5.061-4.175,9.816-8.363,14.613-12.102c9.536-7.545,18.253-14.479,26.313-20.217
		c7.972-5.828,14.856-10.99,20.724-14.937c5.802-4.055,10.439-7.128,13.569-9.271C550.002,181.54,551.669,180.404,551.669,180.404z"
		/>
	<path fill="#FFFFFF" d="M325.064,422.329c5.492-21.446,14.273-40.169,19.947-61.566l16.951-64.208l0.578-2.179l2.181,0.735
		l13.53,4.542l-2.979,2.018c0.305-6.56,0.706-13.07,1.359-19.631c0.351-3.292,0.692-6.533,1.454-9.97
		c0.222-0.885,0.402-1.718,0.914-2.836c0.147-0.284,0.433-0.758,0.522-0.879l0.352-0.502l0.699-1.001l2.785-4.012
		c7.45-10.678,14.833-21.485,23.275-31.688c8.409-10.192,18.178-19.584,29.214-27.082c11.009-7.539,22.851-13.597,34.866-18.943
		c12.047-5.324,24.297-10.026,36.627-14.406c12.334-4.376,24.752-8.471,37.196-12.41c6.215-1.926,12.075-4.016,17.926-6.575
		c5.81-2.538,11.436-5.442,16.802-8.749c5.362-3.31,10.46-7.018,15.158-11.148c2.349-2.057,4.608-4.215,6.733-6.483
		c1.063-1.135,2.088-2.294,3.083-3.484l1.476-1.812l0.753-0.955l0.436-0.546l0.309-0.361l0.318-0.328l0.352-0.312
		c0.07-0.088,0.957-0.665,1.485-0.771l5.867-1.189l-0.619,5.501c-0.711,6.281-1.94,11.961-3.396,17.796
		c-1.456,5.779-3.191,11.467-5.146,17.074c-3.894,11.226-8.774,22.073-14.35,32.526c-2.857,5.194-5.794,10.342-9.018,15.309
		c-3.154,5.01-6.567,9.857-10.105,14.6c-7.086,9.485-14.861,18.436-23.218,26.801c-2.037,2.139-4.232,4.128-6.369,6.163
		c-2.124,2.06-4.342,4.007-6.572,5.944c-4.395,3.948-9.038,7.609-13.73,11.179l-7.136,5.236l-7.302,4.982l-3.539,2.445
		c-1.104,0.85-2.142,1.603-3.187,2.519c-2.122,1.76-4.037,3.749-5.878,5.804c-3.6,4.181-6.578,8.921-8.975,14.003
		c-2.396,5.079-4.262,10.465-5.856,15.988c-1.61,5.517-2.948,11.174-4.572,16.861c-1.622,5.626-3.6,11.564-7.017,16.671
		l-0.369,0.546l-0.49,0.268l-52.817,28.403l-1.435-3.878l33.884-7.16l8.243-1.746l-6.571,5.051c-1.054,0.812-2.096,1.679-3.17,2.434
		l-3.267,2.149c-2.213,1.335-4.45,2.618-6.714,3.808c-2.271,1.194-4.546,2.348-6.846,3.45c-2.305,1.115-4.618,2.179-6.937,3.226
		c-9.295,4.171-18.695,7.991-28.24,11.555l-0.847-2.97l34.638-6.89l3.469-0.688l-2.012,2.831c-1.227,1.719-2.522,3.105-3.874,4.551
		c-1.371,1.388-2.764,2.762-4.243,4.019c-1.438,1.315-2.991,2.486-4.508,3.688c-1.522,1.201-3.151,2.253-4.724,3.383
		c-1.602,1.082-3.268,2.062-4.897,3.095c-1.648,1.016-3.376,1.879-5.056,2.825c-1.67,0.966-3.44,1.735-5.173,2.576
		c-1.738,0.835-3.467,1.678-5.268,2.363l-5.343,2.18l-5.456,1.872c-1.815,0.633-3.639,1.23-5.502,1.703l-5.547,1.54
		c-1.842,0.544-3.739,0.86-5.604,1.296l-5.615,1.229l-11.336,1.862l11.251-2.267l5.556-1.427c1.84-0.508,3.718-0.883,5.528-1.493
		l5.462-1.728c1.833-0.539,3.621-1.196,5.397-1.895l5.354-2.011l5.222-2.298c1.765-0.726,3.448-1.605,5.141-2.473
		c1.688-0.875,3.417-1.679,5.033-2.681c1.629-0.974,3.305-1.865,4.889-2.904c1.575-1.061,3.184-2.064,4.723-3.164
		c1.503-1.149,3.076-2.213,4.521-3.428c1.444-1.211,2.925-2.387,4.276-3.7c1.408-1.255,2.704-2.614,3.987-3.974
		c1.229-1.379,2.5-2.848,3.454-4.273l1.455,2.137l-34.582,7.178l-0.852-2.967c9.401-3.637,18.739-7.567,27.882-11.803
		c2.288-1.062,4.563-2.146,6.808-3.271c2.261-1.108,4.488-2.274,6.685-3.471c2.208-1.187,4.35-2.455,6.461-3.766l3.063-2.062
		c0.983-0.71,1.884-1.487,2.832-2.22l1.664,3.302l-33.815,7.505l-14.341,3.181l12.906-7.057l52.616-28.771l-0.862,0.81
		c3.003-4.692,4.647-10.003,6.132-15.575c1.469-5.551,2.693-11.268,4.229-16.974c1.515-5.709,3.347-11.421,5.799-16.943
		c2.467-5.517,5.615-10.809,9.531-15.544c1.986-2.333,4.086-4.593,6.408-6.61c1.124-1.023,2.424-2.03,3.608-2.97l3.605-2.604
		l7.026-5.026l6.856-5.264c2.304-1.718,4.449-3.645,6.679-5.461c2.247-1.795,4.404-3.695,6.542-5.617
		c2.158-1.901,4.304-3.813,6.353-5.83c2.066-1.994,4.178-3.945,6.146-6.04c8.063-8.187,15.546-16.931,22.348-26.175
		c3.395-4.621,6.661-9.339,9.687-14.216c3.087-4.826,5.896-9.833,8.615-14.873c5.321-10.148,9.954-20.662,13.623-31.494
		c1.844-5.412,3.472-10.895,4.827-16.428c1.329-5.479,2.492-11.236,3.053-16.545l5.249,4.31c0.477-0.077,1.321-0.638,1.354-0.689
		c0.084-0.065,0.158-0.136,0.244-0.209l0.096-0.108l-0.08,0.104l-0.321,0.409l-0.761,0.966l-1.599,1.981
		c-1.092,1.314-2.218,2.598-3.379,3.843c-2.313,2.5-4.756,4.858-7.304,7.098c-5.099,4.457-10.59,8.409-16.328,11.915
		s-11.724,6.558-17.863,9.211c-6.095,2.642-12.527,4.906-18.768,6.791c-12.427,3.813-24.791,7.777-37.046,12.011
		c-12.249,4.232-24.371,8.774-36.204,13.883c-11.808,5.13-23.306,10.911-33.87,18.013c-5.262,3.57-10.335,7.387-15.075,11.614
		c-4.755,4.217-9.198,8.797-13.418,13.623c-8.432,9.667-16.044,20.204-23.765,30.689l-2.89,3.94l-0.722,0.984l-0.364,0.491
		c-0.148,0.206-0.045,0.101-0.109,0.166c-0.183,0.355-0.414,1.114-0.579,1.803c-0.703,2.917-1.117,6.156-1.5,9.334
		c-0.737,6.39-1.242,12.877-1.639,19.323l-0.185,3.006l-2.792-0.988l-13.461-4.753l2.756-1.445l-18.818,63.684
		C341.009,382.629,331.498,401.144,325.064,422.329z"/>
</g>
</svg>
