<?xml version="1.0" encoding="UTF-8" standalone="no"?>
<svg
   xmlns:dc="http://purl.org/dc/elements/1.1/"
   xmlns:cc="http://creativecommons.org/ns#"
   xmlns:rdf="http://www.w3.org/1999/02/22-rdf-syntax-ns#"
   xmlns:svg="http://www.w3.org/2000/svg"
   xmlns="http://www.w3.org/2000/svg"
   xmlns:sodipodi="http://sodipodi.sourceforge.net/DTD/sodipodi-0.dtd"
   xmlns:inkscape="http://www.inkscape.org/namespaces/inkscape"
   version="1.1"
   id="Layer_1"
   x="0px"
   y="0px"
   width="841.889px"
   height="595.281px"
   viewBox="0 0 841.889 595.281"
   enable-background="new 0 0 841.889 595.281"
   xml:space="preserve"
   inkscape:version="0.91 r13725"
   sodipodi:docname="icon.svg"><metadata
     id="metadata4149"><rdf:RDF><cc:Work
         rdf:about=""><dc:format>image/svg+xml</dc:format><dc:type
           rdf:resource="http://purl.org/dc/dcmitype/StillImage" /></cc:Work></rdf:RDF></metadata><defs
     id="defs4147" /><sodipodi:namedview
     pagecolor="#ffffff"
     bordercolor="#666666"
     borderopacity="1"
     objecttolerance="10"
     gridtolerance="10"
     guidetolerance="10"
     inkscape:pageopacity="0"
     inkscape:pageshadow="2"
     inkscape:window-width="1858"
     inkscape:window-height="1060"
     id="namedview4145"
     showgrid="false"
     inkscape:zoom="0.5303767"
     inkscape:cx="141.71104"
     inkscape:cy="557.8162"
     inkscape:window-x="-8"
     inkscape:window-y="-8"
     inkscape:window-maximized="1"
     inkscape:current-layer="Layer_1" /><path
     inkscape:connector-curvature="0"
     style="fill:#26b8b0"
     d="m 715.39875,297.39614 a 294.642,294.642 0 0 1 -294.642,294.642 A 294.642,294.642 0 0 1 126.11474,297.39614 294.642,294.642 0 0 1 420.75675,2.7541504 294.642,294.642 0 0 1 715.39875,297.39614 Z"
     id="circle4137-1-0" /><path
     style="fill:#68e0d9;fill-opacity:1"
     d="m 263.19218,155.03281 c -36.90559,0 -72.4784,6.84787 -106.72069,20.54687 -1.26568,0.49741 -2.54418,1.03268 -3.81836,1.55469 a 294.642,294.642 0 0 0 -26.16407,120.75195 294.642,294.642 0 0 0 294.64258,294.64054 294.642,294.642 0 0 0 294.6426,-294.64054 294.642,294.642 0 0 0 -17.75,-99.91992 c -9.5703,5.56096 -18.8824,10.44606 -27.918,14.60157 -31.9595,14.87322 -64.3011,22.31054 -97.0215,22.31054 -35.7642,0 -83.1326,-12.13357 -142.1055,-36.40039 -5.3265,-1.957 -9.5109,-3.52306 -12.5546,-4.69726 l -8.56059,-3.52344 C 353.93498,166.7734 305.04387,155.03281 263.19218,155.03281 Z"
     id="circle4137"
     inkscape:connector-curvature="0" /></svg>